<svg xmlns="http://www.w3.org/2000/svg" viewBox="0 0 400 20" width="400" height="20" fill="none">
  
  
  <line x1="0" y1="10" x2="160" y2="10" stroke="rgba(78,207,198,0.3)" stroke-width="1"></line>
  <line x1="240" y1="10" x2="400" y2="10" stroke="rgba(78,207,198,0.3)" stroke-width="1"></line>
  
  <path d="M200 2 L210 10 L200 18 L190 10 Z" fill="rgba(0,232,216,0.15)" stroke="#00e8d8" stroke-width="1"></path>
  <path d="M200 5 L206 10 L200 15 L194 10 Z" fill="#00e8d8" opacity="0.6"></path>
  <circle cx="200" cy="10" r="2" fill="#00e8d8"></circle>
  
  <line x1="170" y1="7" x2="170" y2="13" stroke="rgba(78,207,198,0.6)" stroke-width="1"></line>
  <line x1="178" y1="8" x2="178" y2="12" stroke="rgba(78,207,198,0.4)" stroke-width="1"></line>
  <line x1="185" y1="8.5" x2="185" y2="11.5" stroke="rgba(78,207,198,0.3)" stroke-width="1"></line>
  <line x1="230" y1="7" x2="230" y2="13" stroke="rgba(78,207,198,0.6)" stroke-width="1"></line>
  <line x1="222" y1="8" x2="222" y2="12" stroke="rgba(78,207,198,0.4)" stroke-width="1"></line>
  <line x1="215" y1="8.5" x2="215" y2="11.5" stroke="rgba(78,207,198,0.3)" stroke-width="1"></line>
  
  <circle cx="8" cy="10" r="2" fill="#4ecfc6" opacity="0.7"></circle>
  <circle cx="392" cy="10" r="2" fill="#4ecfc6" opacity="0.7"></circle>
  <circle cx="20" cy="10" r="1" fill="rgba(78,207,198,0.4)"></circle>
  <circle cx="380" cy="10" r="1" fill="rgba(78,207,198,0.4)"></circle>
</svg>