<svg xmlns="http://www.w3.org/2000/svg" viewBox="0 0 120 120" width="120" height="120">
  <defs>
    
  </defs>

  
  <g class="ring-slow">
    <circle cx="60" cy="60" r="55" fill="none" stroke="rgba(78,207,198,0.25)" stroke-width="1"></circle>
    
    <line x1="60" y1="5" x2="60" y2="14" stroke="#4ecfc6" stroke-width="1.5" opacity="0.8"></line>
    <line x1="60" y1="5" x2="60" y2="14" stroke="#4ecfc6" stroke-width="1.5" opacity="0.8" transform="rotate(30 60 60)"></line>
    <line x1="60" y1="5" x2="60" y2="14" stroke="#4ecfc6" stroke-width="1.5" opacity="0.8" transform="rotate(60 60 60)"></line>
    <line x1="60" y1="5" x2="60" y2="14" stroke="#4ecfc6" stroke-width="1.5" opacity="0.8" transform="rotate(90 60 60)"></line>
    <line x1="60" y1="5" x2="60" y2="14" stroke="#4ecfc6" stroke-width="1.5" opacity="0.8" transform="rotate(120 60 60)"></line>
    <line x1="60" y1="5" x2="60" y2="14" stroke="#4ecfc6" stroke-width="1.5" opacity="0.8" transform="rotate(150 60 60)"></line>
    <line x1="60" y1="5" x2="60" y2="14" stroke="#4ecfc6" stroke-width="1.5" opacity="0.8" transform="rotate(180 60 60)"></line>
    <line x1="60" y1="5" x2="60" y2="14" stroke="#4ecfc6" stroke-width="1.5" opacity="0.8" transform="rotate(210 60 60)"></line>
    <line x1="60" y1="5" x2="60" y2="14" stroke="#4ecfc6" stroke-width="1.5" opacity="0.8" transform="rotate(240 60 60)"></line>
    <line x1="60" y1="5" x2="60" y2="14" stroke="#4ecfc6" stroke-width="1.5" opacity="0.8" transform="rotate(270 60 60)"></line>
    <line x1="60" y1="5" x2="60" y2="14" stroke="#4ecfc6" stroke-width="1.5" opacity="0.8" transform="rotate(300 60 60)"></line>
    <line x1="60" y1="5" x2="60" y2="14" stroke="#4ecfc6" stroke-width="1.5" opacity="0.8" transform="rotate(330 60 60)"></line>
    
    <line x1="60" y1="5" x2="60" y2="10" stroke="rgba(78,207,198,0.4)" stroke-width="0.8" transform="rotate(15 60 60)"></line>
    <line x1="60" y1="5" x2="60" y2="10" stroke="rgba(78,207,198,0.4)" stroke-width="0.8" transform="rotate(45 60 60)"></line>
    <line x1="60" y1="5" x2="60" y2="10" stroke="rgba(78,207,198,0.4)" stroke-width="0.8" transform="rotate(75 60 60)"></line>
    <line x1="60" y1="5" x2="60" y2="10" stroke="rgba(78,207,198,0.4)" stroke-width="0.8" transform="rotate(105 60 60)"></line>
    <line x1="60" y1="5" x2="60" y2="10" stroke="rgba(78,207,198,0.4)" stroke-width="0.8" transform="rotate(135 60 60)"></line>
    <line x1="60" y1="5" x2="60" y2="10" stroke="rgba(78,207,198,0.4)" stroke-width="0.8" transform="rotate(165 60 60)"></line>
    <line x1="60" y1="5" x2="60" y2="10" stroke="rgba(78,207,198,0.4)" stroke-width="0.8" transform="rotate(195 60 60)"></line>
    <line x1="60" y1="5" x2="60" y2="10" stroke="rgba(78,207,198,0.4)" stroke-width="0.8" transform="rotate(225 60 60)"></line>
    <line x1="60" y1="5" x2="60" y2="10" stroke="rgba(78,207,198,0.4)" stroke-width="0.8" transform="rotate(255 60 60)"></line>
    <line x1="60" y1="5" x2="60" y2="10" stroke="rgba(78,207,198,0.4)" stroke-width="0.8" transform="rotate(285 60 60)"></line>
    <line x1="60" y1="5" x2="60" y2="10" stroke="rgba(78,207,198,0.4)" stroke-width="0.8" transform="rotate(315 60 60)"></line>
    <line x1="60" y1="5" x2="60" y2="10" stroke="rgba(78,207,198,0.4)" stroke-width="0.8" transform="rotate(345 60 60)"></line>
  </g>

  
  <g class="ring-mid">
    <circle cx="60" cy="60" r="40" fill="none" stroke="rgba(136,116,204,0.3)" stroke-width="0.8" stroke-dasharray="4 6"></circle>
  </g>

  
  
  <path d="M60 18 L64 60 L60 58 L56 60 Z" fill="#4ecfc6" opacity="0.9"></path>
  <path d="M60 102 L64 60 L60 62 L56 60 Z" fill="rgba(78,207,198,0.4)" opacity="0.8"></path>
  
  <path d="M102 60 L60 64 L62 60 L60 56 Z" fill="rgba(196,174,255,0.5)" opacity="0.8"></path>
  <path d="M18 60 L60 64 L58 60 L60 56 Z" fill="rgba(196,174,255,0.3)" opacity="0.8"></path>
  
  <path d="M88.4 31.6 L62 58 L60 56 L58 58 Z" fill="rgba(78,207,198,0.25)"></path>
  <path d="M31.6 88.4 L58 62 L60 64 L62 62 Z" fill="rgba(78,207,198,0.2)"></path>
  <path d="M88.4 88.4 L62 62 L64 60 L62 58 Z" fill="rgba(196,174,255,0.2)"></path>
  <path d="M31.6 31.6 L58 58 L56 60 L58 62 Z" fill="rgba(196,174,255,0.15)"></path>

  
  <g class="gem-pulse">
    <circle cx="60" cy="60" r="8" fill="rgba(0,232,216,0.15)" stroke="#00e8d8" stroke-width="1"></circle>
    <path d="M60 52 L66 60 L60 68 L54 60 Z" fill="rgba(0,232,216,0.3)" stroke="#00e8d8" stroke-width="0.8"></path>
    <circle cx="60" cy="60" r="3" fill="#00e8d8"></circle>
  </g>

  
  <g class="ring-fast">
    <circle cx="60" cy="60" r="22" fill="none" stroke="rgba(78,207,198,0.15)" stroke-width="0.8" stroke-dasharray="2 8"></circle>
  </g>
</svg>