<svg xmlns="http://www.w3.org/2000/svg" viewBox="0 0 320 200" width="320" height="200" fill="none">
  
  
  <rect x="1" y="1" width="318" height="198" stroke="rgba(78,207,198,0.25)" stroke-width="1" rx="2"></rect>
  
  <rect x="3" y="3" width="314" height="194" stroke="rgba(78,207,198,0.1)" stroke-width="1" rx="1"></rect>

  
  <path d="M1 32 L1 1 L32 1" stroke="#4ecfc6" stroke-width="1.5" stroke-linecap="square"></path>
  <rect x="0" y="0" width="5" height="5" fill="#4ecfc6" opacity="0.8"></rect>
  <rect x="1" y="1" width="2.5" height="2.5" fill="#00e8d8"></rect>

  
  <path d="M319 32 L319 1 L288 1" stroke="#4ecfc6" stroke-width="1.5" stroke-linecap="square"></path>
  <rect x="315" y="0" width="5" height="5" fill="#4ecfc6" opacity="0.8"></rect>
  <rect x="316.5" y="1" width="2.5" height="2.5" fill="#00e8d8"></rect>

  
  <path d="M1 168 L1 199 L32 199" stroke="#4ecfc6" stroke-width="1.5" stroke-linecap="square"></path>
  <rect x="0" y="195" width="5" height="5" fill="#4ecfc6" opacity="0.8"></rect>
  <rect x="1" y="196.5" width="2.5" height="2.5" fill="#00e8d8"></rect>

  
  <path d="M319 168 L319 199 L288 199" stroke="#4ecfc6" stroke-width="1.5" stroke-linecap="square"></path>
  <rect x="315" y="195" width="5" height="5" fill="#4ecfc6" opacity="0.8"></rect>
  <rect x="316.5" y="196.5" width="2.5" height="2.5" fill="#00e8d8"></rect>

  
  <line x1="32" y1="1" x2="288" y2="1" stroke="rgba(78,207,198,0.4)" stroke-width="1"></line>
  <line x1="1" y1="28" x2="319" y2="28" stroke="rgba(78,207,198,0.15)" stroke-width="1"></line>

  
  <line x1="48" y1="1" x2="48" y2="8" stroke="rgba(78,207,198,0.4)" stroke-width="1"></line>
  <line x1="272" y1="1" x2="272" y2="8" stroke="rgba(78,207,198,0.4)" stroke-width="1"></line>

  
  <path d="M160 -3 L165 2 L160 7 L155 2 Z" fill="rgba(0,232,216,0.3)" stroke="#00e8d8" stroke-width="0.8"></path>
  <circle cx="160" cy="2" r="1.2" fill="#00e8d8"></circle>

  
  <line x1="1" y1="90" x2="6" y2="90" stroke="rgba(78,207,198,0.5)" stroke-width="1"></line>
  <line x1="1" y1="100" x2="5" y2="100" stroke="rgba(78,207,198,0.3)" stroke-width="1"></line>
  <line x1="1" y1="110" x2="6" y2="110" stroke="rgba(78,207,198,0.5)" stroke-width="1"></line>
  <line x1="319" y1="90" x2="314" y2="90" stroke="rgba(78,207,198,0.5)" stroke-width="1"></line>
  <line x1="319" y1="100" x2="315" y2="100" stroke="rgba(78,207,198,0.3)" stroke-width="1"></line>
  <line x1="319" y1="110" x2="314" y2="110" stroke="rgba(78,207,198,0.5)" stroke-width="1"></line>
</svg>